<svg id="Layer_1" data-name="Layer 1" 
    xmlns="http://www.w3.org/2000/svg" 
    xmlns:xlink="http://www.w3.org/1999/xlink" viewBox="0 0 340.68 258">
    <defs>
        <style>.cls-1,.cls-2,.cls-3{stroke:#000;stroke-miterlimit:10;stroke-width:30px;}.cls-1{fill:url(#radial-gradient);}.cls-2{fill:url(#radial-gradient-2);}.cls-3{fill:url(#radial-gradient-3);}.cls-4{fill:#fff;}</style>
        <radialGradient id="radial-gradient" cx="569.66" cy="326.42" r="84.44" gradientUnits="userSpaceOnUse">
            <stop offset="0"/>
            <stop offset="1"/>
        </radialGradient>
        <radialGradient id="radial-gradient-2" cx="694.23" cy="328" r="59.52" xlink:href="#radial-gradient"/>
        <radialGradient id="radial-gradient-3" cx="641.66" cy="420.94" r="112.93" xlink:href="#radial-gradient"/>
    </defs>
    <title>logo</title>
    <path class="cls-1" d="M578.87,235.91c-18.86,13.67-28.79,21.77-40.15,32.73-21.25,20.44-33,39.54-37.62,61-4.08,18.94-1.51,39.46,6.95,55.92,10,19.39,26.13,32,46.45,36.34,6,1.3,18.31,1.26,24.2,0a71,71,0,0,0,30.8-14.77c15.9-12.87,26.38-31.72,29.88-53.69,1-6.48,1-19.91,0-26.31-4.12-25.77-16.32-50.17-42.54-85-7.74-10.28-9.17-12.14-9.51-12.14C587.16,230,583.37,232.67,578.87,235.91Zm42.75,102.17c2.73,1.38,4.79,3.6,6.56,7,2.78,5.46,3.49,8.94,3.49,17.4.05,6.43-.08,7.61-.92,10.2-.51,1.58-1.14,4-1.39,5.26a30.35,30.35,0,0,1-6,13.19c-4.89,6.31-10.52,9-15.95,7.57-1.94-.53-5.3-3.4-7.07-6.07-4.21-6.32-8.75-20.4-13.47-41.68-.92-4.33-1.81-8.14-1.89-8.42s-.13-.48,0-.48,1.85,2.06,3.87,4.53c5.3,6.51,13.34,14.2,16.2,15.5,3.11,1.37,4.37,1.29,6.06-.33s2.56-4.25,3.2-9.91q1.32-12.27,2.27-13.72C617.41,337,619.35,336.91,621.62,338.08Z" transform="translate(-471.32 -215)"/>
    <path class="cls-2" d="M698.62,266.09a258.82,258.82,0,0,0-22.47,17.73c-13,11.57-22.43,24-26.84,35.2-6.82,17.2-6.32,35.21,1.38,50.42,7.07,14,19.66,23.59,33.84,25.9,18.55,3,36.9-5.43,48.68-22.46,9.6-13.88,13.09-32.9,9.09-50C739.57,311,734.39,299.4,725.43,285c-5-7.93-17-24.8-17.89-25C707.25,260,703.25,262.7,698.62,266.09Zm-23.31,78.55c4,2.87,5.81,7.2,6.14,14.44.43,8.5-2,16.15-6.73,21.65-2.31,2.63-4.59,3.88-7.45,4.13a5.65,5.65,0,0,1-4.12-.69c-4.76-2.59-7.91-10.85-9.55-25-.34-3-.63-5.7-.63-6s1.09.85,2.44,2.59c2.56,3.32,5.64,6.15,6.77,6.23,3.07.25,4.34-1.78,5.72-9.14C669.67,343.26,671.19,341.6,675.31,344.64Z" transform="translate(-471.32 -215)"/>
    <path class="cls-3" d="M768.26,384.37c-1,.28-10.22,2.55-20.4,5.06s-24.37,5.95-31.56,7.69l-29,7.08-59.75,14.57c-15.28,3.72-33.79,8.25-61.44,15-34.75,8.45-46.87,11.41-60.8,14.85-8.21,2-15.82,3.84-16.92,4.08-1.89.37-2.65,1.18-1.47,1.62a26.78,26.78,0,0,1,2.95,2.11c2.94,2.3,1.09,2.47,21.33-1.82,4-.85,45-9.35,49.86-10.32,3.24-.65,50.46-10.44,55.76-11.53,2.19-.45,5.22-1.1,6.73-1.42s11.28-2.31,21.67-4.45,20.07-4.17,21.46-4.45,4-.85,5.89-1.22,4.51-.93,5.89-1.21l18.52-3.84c21.54-4.5,20.62-4.29,24.19-5,1.73-.33,4.89-1,7-1.42l43.55-9,6.94-1.42c1.64-.32,4.08-.85,5.47-1.13,7.87-1.62,12.54-2.67,12.92-2.87s-.76-.77-2.23-1.38-3.83-1.58-5.22-2.23-4.58-2-7.15-3.11-6-2.63-7.7-3.4C771.29,383.64,771.08,383.6,768.26,384.37Z" transform="translate(-471.32 -215)"/>
    <path class="cls-4" d="M578.87,234.91c-18.86,13.67-28.79,21.77-40.15,32.73-21.25,20.44-33,39.54-37.62,61-4.08,18.94-1.51,39.46,6.95,55.92,10,19.39,26.13,32,46.45,36.34,6,1.3,18.31,1.26,24.2,0a71,71,0,0,0,30.8-14.77c15.9-12.87,26.38-31.72,29.88-53.69,1-6.48,1-19.91,0-26.31-4.12-25.77-16.32-50.17-42.54-85-7.74-10.28-9.17-12.14-9.51-12.14C587.16,229,583.37,231.67,578.87,234.91Zm42.75,102.17c2.73,1.38,4.79,3.6,6.56,7,2.78,5.46,3.49,8.94,3.49,17.4.05,6.43-.08,7.61-.92,10.2-.51,1.58-1.14,4-1.39,5.26a30.35,30.35,0,0,1-6,13.19c-4.89,6.31-10.52,9-15.95,7.57-1.94-.53-5.3-3.4-7.07-6.07-4.21-6.32-8.75-20.4-13.47-41.68-.92-4.33-1.81-8.14-1.89-8.42s-.13-.48,0-.48,1.85,2.06,3.87,4.53c5.3,6.51,13.34,14.2,16.2,15.5,3.11,1.37,4.37,1.29,6.06-.33s2.56-4.25,3.2-9.91q1.32-12.27,2.27-13.72C617.41,336,619.35,335.91,621.62,337.08Z" transform="translate(-471.32 -215)"/>
    <path class="cls-4" d="M698.62,265.09a258.82,258.82,0,0,0-22.47,17.73c-13,11.57-22.43,24-26.84,35.2-6.82,17.2-6.32,35.21,1.38,50.42,7.07,14,19.66,23.59,33.84,25.9,18.55,3,36.9-5.43,48.68-22.46,9.6-13.88,13.09-32.9,9.09-50C739.57,310,734.39,298.4,725.43,284c-5-7.93-17-24.8-17.89-25C707.25,259,703.25,261.7,698.62,265.09Zm-23.31,78.55c4,2.87,5.81,7.2,6.14,14.44.43,8.5-2,16.15-6.73,21.65-2.31,2.63-4.59,3.88-7.45,4.13a5.65,5.65,0,0,1-4.12-.69c-4.76-2.59-7.91-10.85-9.55-25-.34-3-.63-5.7-.63-6s1.09.85,2.44,2.59c2.56,3.32,5.64,6.15,6.77,6.23,3.07.25,4.34-1.78,5.72-9.14C669.67,342.26,671.19,340.6,675.31,343.64Z" transform="translate(-471.32 -215)"/>
    <path class="cls-4" d="M768.26,383.37c-1,.28-10.22,2.55-20.4,5.06s-24.37,5.95-31.56,7.69l-29,7.08-59.75,14.57c-15.28,3.72-33.79,8.25-61.44,15-34.75,8.45-46.87,11.41-60.8,14.85-8.21,2-15.82,3.84-16.92,4.08-1.89.37-2.65,1.18-1.47,1.62a26.78,26.78,0,0,1,2.95,2.11c2.94,2.3,1.09,2.47,21.33-1.82,4-.85,45-9.35,49.86-10.32,3.24-.65,50.46-10.44,55.76-11.53,2.19-.45,5.22-1.1,6.73-1.42s11.28-2.31,21.67-4.45,20.07-4.17,21.46-4.45,4-.85,5.89-1.22,4.51-.93,5.89-1.21l18.52-3.84c21.54-4.5,20.62-4.29,24.19-5,1.73-.33,4.89-1,7-1.42l43.55-9,6.94-1.42c1.64-.32,4.08-.85,5.47-1.13,7.87-1.62,12.54-2.67,12.92-2.87s-.76-.77-2.23-1.38-3.83-1.58-5.22-2.23-4.58-2-7.15-3.11-6-2.63-7.7-3.4C771.29,382.64,771.08,382.6,768.26,383.37Z" transform="translate(-471.32 -215)"/>
</svg>
